<svg xmlns="http://www.w3.org/2000/svg" viewBox="0 0 100 100"><path fill="#2563eb" d="M87.7,70.3l-2.1.2L78.3,57.9a11.8,11.8,0,0,0-9.2-19.3l-1.9.2L59.5,25.2a11.8,11.8,0,1,0-18.5,0L33.2,38.7l-1.9-.2a11.8,11.8,0,0,0-9.2,19.3L14.8,70.6l-2.5-.3A11.8,11.8,0,1,0,23.5,86.1H39.1a11.8,11.8,0,0,0,22.3,0H76.5A11.8,11.8,0,1,0,87.7,70.3Zm-66,4.5L29,62l2.3.2H33l7.6,13.2a11.8,11.8,0,0,0-1.5,2.8H23.5A11.8,11.8,0,0,0,21.6,74.8ZM50.2,29.7l2.4-.3,7.6,13.1a11.9,11.9,0,0,0-1.6,2.3H41.8a11.9,11.9,0,0,0-1.6-2.3l7.6-13.1Zm-3,41L40.1,58.4a11.8,11.8,0,0,0,2.9-5.5H57.5a11.8,11.8,0,0,0,2.9,5.5L53.3,70.7a11.5,11.5,0,0,0-6.1,0Zm12.7,4.6,7.6-13.2h1.7l2.3-.2,7.2,12.5a11.8,11.8,0,0,0-2.1,3.6H61.3A11.8,11.8,0,0,0,59.9,75.3ZM73,50.4a3.8,3.8,0,1,1-3.8-3.8A3.8,3.8,0,0,1,73,50.4ZM50.2,14a3.8,3.8,0,0,1,0,7.7h0a3.8,3.8,0,0,1,0-7.7ZM31.3,46.5a3.8,3.8,0,1,1-3.8,3.8A3.8,3.8,0,0,1,31.3,46.5ZM12.3,86a3.8,3.8,0,1,1,3.8-3.8A3.8,3.8,0,0,1,12.3,86Zm37.9,0h0a3.8,3.8,0,1,1,3.8-3.8A3.8,3.8,0,0,1,50.2,86Zm37.4,0a3.8,3.8,0,1,1,3.8-3.8A3.8,3.8,0,0,1,87.7,86Z"/></svg>